# Blender v3.0.0 OBJ File: 'basestation.blend'
# www.blender.org
mtllib station_doors.mtl
o Doors_basestation.002
v -4.239727 -5.472889 16.925375
v -4.880977 -5.349979 11.453373
v -4.880977 -5.349982 16.925375
v -4.880977 5.348212 16.925375
v -4.239727 5.471115 11.453379
v -4.239727 5.471112 16.925375
v -5.436727 5.000812 16.925375
v -4.880977 5.348215 11.453379
v -5.906977 4.461142 16.925375
v -5.436727 5.000815 11.453379
v -6.291727 3.761112 16.925375
v -5.906977 4.461145 11.453379
v -6.590977 2.932832 16.925375
v -6.291727 3.761115 11.453379
v -6.804727 2.008362 16.925375
v -6.590977 2.932835 11.453379
v -6.932977 1.019772 16.925375
v -6.804727 2.008365 11.453376
v -6.975727 -0.000888 16.925375
v -6.932977 1.019775 11.453376
v -6.932977 -1.021548 16.925375
v -6.975727 -0.000885 11.453376
v -6.804727 -2.010138 16.925375
v -6.932977 -1.021545 11.453376
v -6.590977 -2.934608 16.925375
v -6.804727 -2.010135 11.453376
v -6.291727 -3.762888 16.925375
v -6.590977 -2.934605 11.453373
v -5.906977 -4.462918 16.925375
v -6.291727 -3.762885 11.453373
v -5.436727 -5.002639 16.925375
v -5.906977 -4.462915 11.453373
v -5.436727 -5.002636 11.453373
v 8.243274 5.000815 11.453379
v 8.799024 5.348215 11.453379
v 9.440273 5.471115 11.453379
v 8.243274 -5.002639 16.925375
v 8.799024 -5.349982 16.925375
v 9.440273 -5.472889 16.925375
v 9.440273 -5.472885 11.453373
v 8.799024 -5.349979 11.453373
v 7.773023 -4.462918 16.925375
v 8.243274 -5.002636 11.453373
v 7.388274 -3.762888 16.925375
v 7.773023 -4.462915 11.453373
v 7.089024 -2.934608 16.925375
v 7.388274 -3.762885 11.453373
v 6.875273 -2.010138 16.925375
v 7.089024 -2.934605 11.453373
v 6.747023 -1.021548 16.925375
v 6.875273 -2.010135 11.453376
v 6.704273 -0.000888 16.925375
v 6.747023 -1.021545 11.453376
v 6.747023 1.019772 16.925375
v 6.704273 -0.000885 11.453376
v 6.875273 2.008362 16.925375
v 6.747023 1.019775 11.453376
v 7.089024 2.932832 16.925375
v 6.875273 2.008365 11.453376
v 7.388274 3.761112 16.925375
v 7.089024 2.932835 11.453379
v 7.773023 4.461142 16.925375
v 7.388274 3.761115 11.453379
v 8.243274 5.000812 16.925375
v 7.773023 4.461145 11.453379
v 8.799024 5.348212 16.925375
v 9.440273 5.471112 16.925375
v -4.239727 -5.472885 11.453373
v 10.352274 5.471115 11.453379
v 10.352274 -5.472886 11.453373
v 10.352274 -5.472889 16.925375
v 10.352274 5.471112 16.925375
vt 0.200161 0.818848
vt 0.233461 0.518847
vt 0.233461 0.818848
vt 0.164365 0.818848
vt 0.200161 0.518847
vt 0.200161 0.818848
vt 0.130896 0.818848
vt 0.164365 0.518847
vt 0.100080 0.818848
vt 0.130896 0.518847
vt 0.300000 0.038379
vt 0.000000 0.000000
vt 0.300000 0.000000
vt 0.300000 0.083789
vt 0.000000 0.038379
vt 0.300000 0.134472
vt 0.000000 0.083789
vt 0.300000 0.188672
vt 0.000000 0.134472
vt 0.300000 0.244629
vt 0.000000 0.188672
vt 0.300000 0.300586
vt 0.000000 0.244629
vt 0.300000 0.354785
vt 0.000000 0.300586
vt 0.300000 0.405468
vt 0.000000 0.354785
vt 0.300000 0.450879
vt 0.000000 0.405468
vt 0.300000 0.489258
vt 0.000000 0.450879
vt 0.300000 0.518847
vt 0.000000 0.489258
vt 0.259875 0.518847
vt 0.259875 0.818848
vt 0.915626 0.574216
vt 0.885157 0.593262
vt 0.850000 0.600000
vt 0.715626 0.574219
vt 0.685157 0.593262
vt 0.650001 0.600000
vt 0.286290 0.818848
vt 0.319590 0.518847
vt 0.319590 0.818848
vt 0.259875 0.818848
vt 0.286290 0.518847
vt 0.299999 0.489258
vt 0.599998 0.518847
vt 0.299999 0.518847
vt 0.299999 0.450879
vt 0.599998 0.489258
vt 0.299999 0.405468
vt 0.599998 0.450879
vt 0.299999 0.354785
vt 0.599998 0.405468
vt 0.299999 0.300586
vt 0.599998 0.354785
vt 0.299999 0.244629
vt 0.599998 0.300586
vt 0.299999 0.188672
vt 0.599998 0.244629
vt 0.299999 0.134472
vt 0.599998 0.188672
vt 0.299999 0.083789
vt 0.599998 0.134472
vt 0.299999 0.038379
vt 0.599998 0.083789
vt 0.299999 0.000000
vt 0.599998 0.038379
vt 0.069265 0.818848
vt 0.100080 0.518847
vt 0.100080 0.818848
vt 0.035796 0.818848
vt 0.069265 0.518847
vt 0.000000 0.818848
vt 0.035796 0.518847
vt 0.200161 0.518847
vt 0.100080 0.518847
vt 0.000000 0.518847
vt 0.800000 0.600000
vt 0.962501 0.506250
vt 0.800000 0.000000
vt 1.000000 0.300000
vt 0.978907 0.460840
vt 0.990625 0.410156
vt 0.850000 0.000000
vt 0.941406 0.055371
vt 0.885157 0.006738
vt 0.915626 0.025781
vt 0.962501 0.093750
vt 0.978907 0.139160
vt 0.990625 0.189844
vt 0.997657 0.244043
vt 0.997657 0.355957
vt 0.941406 0.544629
vt 0.600000 0.600000
vt 0.762501 0.506250
vt 0.600000 0.000000
vt 0.800000 0.300000
vt 0.778907 0.460840
vt 0.790626 0.410156
vt 0.650001 0.000000
vt 0.741406 0.055371
vt 0.715626 0.025784
vt 0.762501 0.093750
vt 0.778907 0.139160
vt 0.790626 0.189844
vt 0.797657 0.244043
vt 0.797657 0.355957
vt 0.741406 0.544629
vt 0.259875 0.518847
vt 0.599998 0.000000
vt 0.000000 0.518847
vt 0.685157 0.006738
vn 0.8111 0.5655 -0.1491
vn 0.3653 0.9309 0.0000
vn 0.3654 -0.9308 -0.0000
vn 0.1876 -0.9788 0.0819
vn 0.1882 -0.9821 -0.0000
vn 0.6491 -0.7607 -0.0000
vn 0.3654 -0.9309 -0.0000
vn 0.8198 -0.5726 -0.0000
vn 0.9112 -0.4120 -0.0000
vn 0.9591 -0.2830 -0.0000
vn 0.9842 -0.1772 -0.0000
vn 0.9964 -0.0853 -0.0000
vn 1.0000 -0.0000 0.0000
vn 0.9964 0.0853 0.0000
vn 0.9842 0.1772 0.0000
vn 0.9591 0.2830 0.0000
vn 0.9112 0.4120 0.0000
vn 0.8199 0.5726 0.0000
vn 0.6491 0.7607 0.0000
vn -0.0000 0.0000 -1.0000
vn -0.0000 0.0000 1.0000
vn -0.3653 -0.9309 -0.0000
vn -0.1882 -0.9821 -0.0000
vn -0.6491 -0.7607 -0.0000
vn -0.8199 -0.5726 -0.0000
vn -0.9112 -0.4120 -0.0000
vn -0.9591 -0.2830 -0.0000
vn -0.9842 -0.1772 -0.0000
vn -0.9964 -0.0853 -0.0000
vn -1.0000 -0.0000 -0.0000
vn -0.9964 0.0853 0.0000
vn -0.9842 0.1772 0.0000
vn -0.9591 0.2830 0.0000
vn -0.9112 0.4120 0.0000
vn -0.8198 0.5726 0.0000
vn -0.6491 0.7607 0.0000
vn -0.3654 0.9309 0.0000
vn -0.1882 0.9821 0.0000
vn 0.0881 0.7407 -0.6660
vn 0.6712 0.5701 0.4739
vn 0.0945 -0.9955 -0.0000
usemtl Texture.001
s 1
f 1/1/1 2/2/2 3/3/2
f 4/4/3 5/5/4 6/6/5
f 7/7/6 8/8/7 4/4/3
f 9/9/8 10/10/6 7/7/6
f 11/11/9 12/12/8 9/13/8
f 13/14/10 14/15/9 11/11/9
f 15/16/11 16/17/10 13/14/10
f 17/18/12 18/19/11 15/16/11
f 19/20/13 20/21/12 17/18/12
f 21/22/14 22/23/13 19/20/13
f 23/24/15 24/25/14 21/22/14
f 25/26/16 26/27/15 23/24/15
f 27/28/17 28/29/16 25/26/16
f 29/30/18 30/31/17 27/28/17
f 31/32/19 32/33/18 29/30/18
f 3/3/2 33/34/19 31/35/19
f 34/36/20 35/37/20 36/38/20
f 37/39/21 38/40/21 39/41/21
f 38/42/22 40/43/23 39/44/23
f 37/45/24 41/46/22 38/42/22
f 42/47/25 43/48/24 37/49/24
f 44/50/26 45/51/25 42/47/25
f 46/52/27 47/53/26 44/50/26
f 48/54/28 49/55/27 46/52/27
f 50/56/29 51/57/28 48/54/28
f 52/58/30 53/59/29 50/56/29
f 54/60/31 55/61/30 52/58/30
f 56/62/32 57/63/31 54/60/31
f 58/64/33 59/65/32 56/62/32
f 60/66/34 61/67/33 58/64/33
f 62/68/35 63/69/34 60/66/34
f 64/70/36 65/71/35 62/72/35
f 66/73/37 34/74/36 64/70/36
f 67/75/38 35/76/37 66/73/37
f 1/1/39 68/77/40 2/2/2
f 4/4/3 8/8/7 5/5/41
f 7/7/6 10/10/6 8/8/7
f 9/9/8 12/78/8 10/10/6
f 11/11/9 14/15/9 12/12/8
f 13/14/10 16/17/10 14/15/9
f 15/16/11 18/19/11 16/17/10
f 17/18/12 20/21/12 18/19/11
f 19/20/13 22/23/13 20/21/12
f 21/22/14 24/25/14 22/23/13
f 23/24/15 26/27/15 24/25/14
f 25/26/16 28/29/16 26/27/15
f 27/28/17 30/31/17 28/29/16
f 29/30/18 32/33/18 30/31/17
f 31/32/19 33/79/19 32/33/18
f 3/3/2 2/2/2 33/34/19
f 36/38/20 69/80/20 63/81/20
f 69/80/20 70/82/20 55/83/20
f 61/84/20 69/80/20 59/85/20
f 70/82/20 40/86/20 45/87/20
f 40/86/20 41/88/20 43/89/20
f 45/87/20 40/86/20 43/89/20
f 45/87/20 47/90/20 70/82/20
f 47/90/20 49/91/20 70/82/20
f 49/91/20 51/92/20 70/82/20
f 51/92/20 53/93/20 70/82/20
f 53/93/20 55/83/20 70/82/20
f 55/83/20 57/94/20 69/80/20
f 57/94/20 59/85/20 69/80/20
f 61/84/20 63/81/20 69/80/20
f 63/81/20 65/95/20 36/38/20
f 65/95/20 34/36/20 36/38/20
f 39/41/21 71/96/21 44/97/21
f 71/96/21 72/98/21 52/99/21
f 46/100/21 71/96/21 48/101/21
f 72/98/21 67/102/21 62/103/21
f 62/103/21 67/102/21 64/104/21
f 62/103/21 60/105/21 72/98/21
f 60/105/21 58/106/21 72/98/21
f 58/106/21 56/107/21 72/98/21
f 56/107/21 54/108/21 72/98/21
f 54/108/21 52/99/21 72/98/21
f 52/99/21 50/109/21 71/96/21
f 50/109/21 48/101/21 71/96/21
f 46/100/21 44/97/21 71/96/21
f 44/97/21 42/110/21 39/41/21
f 42/110/21 37/39/21 39/41/21
f 38/42/22 41/46/22 40/43/23
f 37/45/24 43/111/24 41/46/22
f 42/47/25 45/51/25 43/48/24
f 44/50/26 47/53/26 45/51/25
f 46/52/27 49/55/27 47/53/26
f 48/54/28 51/57/28 49/55/27
f 50/56/29 53/59/29 51/57/28
f 52/58/30 55/61/30 53/59/29
f 54/60/31 57/63/31 55/61/30
f 56/62/32 59/65/32 57/63/31
f 58/64/33 61/67/33 59/65/32
f 60/66/34 63/69/34 61/67/33
f 62/68/35 65/112/35 63/69/34
f 64/70/36 34/74/36 65/71/35
f 66/73/37 35/76/37 34/74/36
f 67/75/38 36/113/38 35/76/37
f 66/114/21 64/104/21 67/102/21
