# Blender v3.0.0 OBJ File: 'station.blend'
# www.blender.org
mtllib station_skybox.mtl
o basestation.001
v 20.384274 -1.824880 8.717376
v 20.384274 -5.472881 8.717375
v 11.264274 -5.472881 8.717375
v 11.264274 -1.824880 8.717376
v 11.264274 3.647123 -14.994623
v 20.384274 3.647123 -14.994623
v 20.384274 3.647119 8.717377
v 11.264274 3.647119 8.717377
v 11.264274 -5.472880 0.509375
v 20.384274 -5.472878 -14.994625
v 11.264274 -5.472878 -14.994625
v 11.264274 -5.472879 -6.786625
v 20.384274 1.823120 8.717376
v 20.384274 1.823123 -14.994624
v 20.384274 -1.824877 -14.994624
v 11.264274 -1.824877 -14.994624
v 11.264274 1.823120 8.717376
v 11.264274 1.823123 -14.994624
vt 0.852448 0.797150
vt 0.741730 0.752865
vt 0.852448 0.752865
vt 0.221390 0.597870
vt 0.110703 0.885727
vt 0.110703 0.597870
vt 0.774887 0.000000
vt 0.885605 0.000000
vt 0.885605 0.099640
vt 0.763874 0.398575
vt 0.808159 0.398575
vt 0.808159 0.686432
vt 0.885605 0.398575
vt 0.774887 0.354290
vt 0.885605 0.354290
vt 0.741730 0.686436
vt 0.852448 0.708580
vt 0.741730 0.708580
vt 0.774887 0.287861
vt 0.885605 0.310005
vt 0.774887 0.310005
vt 0.741730 0.797150
vt 0.221390 0.885727
vt 0.885605 0.188217
vt 0.885605 0.287857
vt 0.774887 0.287857
vt 0.852444 0.398575
vt 0.852444 0.686432
vt 0.763874 0.686432
vt 0.741730 0.686432
vt 0.741730 0.398575
vt 0.774887 0.398575
vt 0.852448 0.686436
vt 0.885605 0.287861
vn 0.0000 0.0000 -1.0000
vn 0.0000 -1.0000 -0.0000
vn -0.0000 1.0000 0.0000
vn -1.0000 -0.0000 0.0000
vn 0.0000 -0.0000 1.0000
usemtl Default_OBJ
s 1
f 2/1/1 4/2/1 1/3/1
f 6/4/2 8/5/2 5/6/2
f 10/7/3 11/8/3 12/9/3
f 14/10/4 15/11/4 1/12/4
f 11/13/5 15/14/5 16/15/5
f 8/16/1 13/17/1 17/18/1
f 6/19/5 18/20/5 14/21/5
f 17/18/1 1/3/1 4/2/1
f 14/21/5 16/15/5 15/14/5
f 2/1/1 3/22/1 4/2/1
f 6/4/2 7/23/2 8/5/2
f 12/9/3 9/24/3 10/7/3
f 9/24/3 3/25/3 2/26/3
f 10/7/3 9/24/3 2/26/3
f 15/11/4 10/27/4 2/28/4
f 1/12/4 13/29/4 14/10/4
f 13/29/4 7/30/4 14/10/4
f 15/11/4 2/28/4 1/12/4
f 7/30/4 6/31/4 14/10/4
f 11/13/5 10/32/5 15/14/5
f 8/16/1 7/33/1 13/17/1
f 6/19/5 5/34/5 18/20/5
f 17/18/1 13/17/1 1/3/1
f 14/21/5 18/20/5 16/15/5
