# Blender v3.0.0 OBJ File: ''
# www.blender.org
mtllib station_skybox2.mtl
o basestation.001
v 39.478104 -19.323557 51.383045
v -17.566854 -3.513384 51.383053
v 39.478104 -3.513384 51.383053
v 39.478104 20.201900 -51.383045
v -52.329258 20.201866 51.383060
v -52.329258 20.201900 -51.383045
v 39.478104 -19.323530 -51.383060
v -52.329258 -19.323530 -51.383060
v -52.329258 -19.323540 -15.810177
v 39.478104 12.296815 -51.383049
v 39.478104 -3.513355 -51.383053
v -17.566854 -3.513355 -51.383053
v 39.478104 12.296785 51.383057
v -17.566854 12.296785 51.383057
v -17.566854 12.296815 -51.383049
v -52.329258 -19.323557 51.383045
v 39.478104 20.201866 51.383060
v -52.329258 -19.323547 15.810162
vt 0.277779 1.000000
vt 0.000000 0.888889
vt 0.277779 0.888889
vt 0.555557 0.000000
vt 0.277779 0.722229
vt 0.277779 0.000000
vt 0.555557 0.000000
vt 0.833328 0.000000
vt 0.833328 0.250000
vt 0.055557 0.000000
vt 0.166668 0.000000
vt 0.166668 0.722229
vt 0.555542 1.000000
vt 0.277771 0.888889
vt 0.555542 0.888889
vt 0.000000 0.722221
vt 0.277779 0.777779
vt 0.000000 0.777779
vt 0.277771 0.722221
vt 0.555542 0.777779
vt 0.277771 0.777779
vt 0.000000 1.000000
vt 0.555557 0.722229
vt 0.833328 0.472229
vt 0.833328 0.722229
vt 0.555557 0.722229
vt 0.277779 0.000000
vt 0.277779 0.722229
vt 0.055557 0.722229
vt 0.000000 0.722229
vt 0.000000 0.000000
vt 0.277771 1.000000
vt 0.277779 0.722221
vt 0.555542 0.722221
vn 0.0000 0.0000 -1.0000
vn 0.0000 -1.0000 -0.0000
vn 0.0000 1.0000 0.0000
vn -1.0000 -0.0000 0.0000
vn 0.0000 -0.0000 1.0000
vn 0.7591 0.0000 -0.6510
vn 1.0000 -0.0000 0.0000
vn 0.7591 -0.0000 0.6510
vn 0.8084 -0.0000 0.5887
vn 0.8084 0.0000 -0.5887
usemtl Default_OBJ
s 1
f 1/1/1 2/2/1 3/3/1
f 4/4/2 5/5/2 6/6/2
f 7/7/3 8/8/3 9/9/3
f 10/10/4 11/11/4 3/12/4
f 8/13/5 11/14/5 12/15/5
f 5/16/1 13/17/1 14/18/1
f 4/19/5 15/20/5 10/21/5
f 14/18/1 3/3/1 2/2/1
f 10/21/5 12/15/5 11/14/5
f 1/1/1 16/22/1 2/2/1
f 4/4/2 17/23/2 5/5/2
f 9/9/3 18/24/3 7/7/3
f 18/24/3 16/25/3 1/26/3
f 7/7/3 18/24/3 1/26/3
f 11/11/4 7/27/4 1/28/4
f 3/12/4 13/29/4 10/10/4
f 13/29/4 17/30/4 10/10/4
f 11/11/4 1/28/4 3/12/4
f 17/30/4 4/31/4 10/10/4
f 8/13/5 7/32/5 11/14/5
f 5/16/1 17/33/1 13/17/1
f 4/19/5 6/34/5 15/20/5
f 14/18/1 13/17/1 3/3/1
f 10/21/5 15/20/5 12/15/5
f 5/5/6 18/24/7 6/6/8
f 18/24/7 9/9/7 6/6/8
f 9/9/7 8/8/9 6/6/8
f 5/5/6 2/2/1 16/25/10
f 12/15/5 6/34/8 8/8/9
f 5/5/6 16/25/10 18/24/7
f 5/5/6 14/18/1 2/2/1
f 12/15/5 15/20/5 6/34/8
